<mxfile host="app.diagrams.net" modified="2024-05-22T02:25:50.211Z" agent="Mozilla/5.0 (Windows NT 10.0; Win64; x64) AppleWebKit/537.36 (KHTML, like Gecko) Chrome/124.0.0.0 Safari/537.36" version="24.4.4" etag="tHl6Xi2a6JoBWfWoXIUt" type="github">
  <diagram name="第 1 页" id="AAvzR3s721_34BZgqiPW">
    <mxGraphModel>
      <root>
        <mxCell id="0" />
        <mxCell id="1" parent="0" />
      </root>
    </mxGraphModel>
  </diagram>
</mxfile>
